<?xml version="1.0" encoding="utf-8"?>
<!-- Generator: Adobe Illustrator 15.0.2, SVG Export Plug-In . SVG Version: 6.00 Build 0)  -->
<!DOCTYPE svg PUBLIC "-//W3C//DTD SVG 1.1//EN" "http://www.w3.org/Graphics/SVG/1.1/DTD/svg11.dtd">
<svg xmlns="http://www.w3.org/2000/svg" xmlns:xlink="http://www.w3.org/1999/xlink" version="1.1" id="Calque_1" x="0px" y="0px" width="80px" height="24px" viewBox="0 0 80 24" enable-background="new 0 0 80 24" xml:space="preserve">
<g>
	<linearGradient id="SVGID_1_" gradientUnits="userSpaceOnUse" x1="39.9995" y1="-0.0508" x2="39.9995" y2="24.0656">
		<stop offset="0" style="stop-color:#EEEBE8"/>
		<stop offset="1" style="stop-color:#E8C6B0"/>
	</linearGradient>
	<path fill="url(#SVGID_1_)" d="M80,20c0,2.2-1.8,4-4,4H4c-2.2,0-4-1.8-4-4V4c0-2.2,1.8-4,4-4h72c2.2,0,4,1.8,4,4V20z"/>
	<path opacity="0.54" fill="#FFFFFE" d="M80,10c0,2.2-1.8,4-4,4H4c-2.2,0-4-1.8-4-4V4c0-2.2,1.8-4,4-4h72c2.2,0,4,1.8,4,4V10z"/>
	<path opacity="0.24" d="M80,20c0,2.2-1.8,4-4,4H4c-2.2,0-4-1.8-4-4v-6c0-2.2,1.8-4,4-4h72c2.2,0,4,1.8,4,4V20z"/>
	<linearGradient id="SVGID_2_" gradientUnits="userSpaceOnUse" x1="39.9995" y1="0.9536" x2="39.9995" y2="23.0603">
		<stop offset="0" style="stop-color:#EEEBE8"/>
		<stop offset="1" style="stop-color:#E8C6B0"/>
	</linearGradient>
	<path fill="url(#SVGID_2_)" d="M80,19c0,2.2-1.8,4-4,4H4c-2.2,0-4-1.8-4-4V5c0-2.2,1.8-4,4-4h72c2.2,0,4,1.8,4,4V19z"/>
	<linearGradient id="SVGID_3_" gradientUnits="userSpaceOnUse" x1="40.0005" y1="23" x2="40.0005" y2="1.0005">
		<stop offset="0" style="stop-color:#FFFFFE;stop-opacity:0.25"/>
		<stop offset="1" style="stop-color:#FFFFFE;stop-opacity:0"/>
	</linearGradient>
	<path fill="url(#SVGID_3_)" d="M80,19c0,2.2-1.8,4-4,4H4c-2.2,0-4-1.8-4-4V5c0-2.2,1.8-4,4-4h72c2.2,0,4,1.8,4,4V19z"/>
	<path opacity="0.1" fill="#FFFFFE" d="M76,2c1.654,0,3,1.346,3,3v14c0,1.654-1.346,3-3,3H4c-1.654,0-3-1.346-3-3V5   c0-1.654,1.346-3,3-3H76 M76,1H4C1.8,1,0,2.8,0,5v14c0,2.2,1.8,4,4,4h72c2.2,0,4-1.8,4-4V5C80,2.8,78.2,1,76,1L76,1z"/>
</g>
</svg>
