<?xml version="1.0" encoding="utf-8"?>
<!-- Generator: Adobe Illustrator 15.0.2, SVG Export Plug-In . SVG Version: 6.00 Build 0)  -->
<!DOCTYPE svg PUBLIC "-//W3C//DTD SVG 1.1//EN" "http://www.w3.org/Graphics/SVG/1.1/DTD/svg11.dtd">
<svg version="1.1" id="Calque_1" xmlns="http://www.w3.org/2000/svg" xmlns:xlink="http://www.w3.org/1999/xlink" x="0px" y="0px"
	 width="22px" height="18px" viewBox="0 0 22 18" enable-background="new 0 0 22 18" xml:space="preserve">
<g>
	<rect x="2" y="2" fill="#FFF5F5" width="16" height="16"/>
	<g>
		<g>
			<rect x="3" y="15.498" fill="#006E12" width="12.729" height="1"/>
			<rect x="3" y="13.498" fill="#006E12" width="8.5" height="1"/>
			<rect x="3" y="11.498" fill="#006E12" width="5.375" height="1"/>
		</g>
		<g>
			<path fill="#006E12" d="M12.232,6.809c0.178-0.115,0.34-0.272,0.479-0.474c0.225-0.304,0.33-0.655,0.33-1.052
				c0-0.521-0.195-0.954-0.592-1.287c-0.393-0.327-0.896-0.493-1.498-0.493c-0.696,0-1.204,0.201-1.508,0.599L9.385,4.181
				l0.554,0.848l0.123-0.137c0.206-0.231,0.475-0.346,0.827-0.346c0.637,0,0.938,0.29,0.938,0.911c0,0.592-0.316,0.866-1,0.866
				h-0.186v1.009h0.213c0.367,0,0.65,0.101,0.869,0.31c0.215,0.205,0.318,0.469,0.318,0.805c0,0.738-0.354,1.083-1.107,1.083
				c-0.41,0-0.742-0.146-1.012-0.438L9.797,8.953l-0.59,0.943l0.084,0.08c0.179,0.164,0.41,0.303,0.715,0.42
				c0.297,0.112,0.604,0.176,0.913,0.176c0.729,0,1.31-0.182,1.72-0.532c0.416-0.356,0.627-0.871,0.627-1.521
				c0-0.449-0.121-0.841-0.363-1.157C12.727,7.126,12.502,6.939,12.232,6.809z"/>
			<path fill="#006E12" d="M16.521,3.593L16.48,3.646c-0.207,0.263-0.496,0.542-0.863,0.83c-0.371,0.292-0.727,0.523-1.057,0.69
				l-0.078,0.038v1.178L15.82,5.55v4.933H17v-6.89H16.521z"/>
		</g>
	</g>
</g>
</svg>
