<?xml version="1.0" encoding="utf-8"?>
<!-- Generator: Adobe Illustrator 15.0.2, SVG Export Plug-In . SVG Version: 6.00 Build 0)  -->
<!DOCTYPE svg PUBLIC "-//W3C//DTD SVG 1.1//EN" "http://www.w3.org/Graphics/SVG/1.1/DTD/svg11.dtd">
<svg xmlns="http://www.w3.org/2000/svg" xmlns:xlink="http://www.w3.org/1999/xlink" version="1.1" id="Calque_1" x="0px" y="0px" width="16px" height="8px" viewBox="0 0 16 8" enable-background="new 0 0 16 8" xml:space="preserve">
<g id="Calque_1_1_">
</g>
<g display="none">
	<polyline display="inline" fill="none" stroke="#42608C" stroke-miterlimit="10" points="450.756,551.547 446.219,547.01    441.682,551.547 437.145,547.01 432.61,551.547 428.073,547.01 423.536,551.547 419,547.01 414.463,551.547  "/>
	<polyline display="inline" fill="none" stroke="#42608C" stroke-miterlimit="10" points="450.756,545.547 446.219,541.01    441.682,545.547 437.145,541.01 432.61,545.547 428.073,541.01 423.536,545.547 419,541.01 414.463,545.547  "/>
	<polyline display="inline" fill="none" stroke="#42608C" stroke-miterlimit="10" points="450.756,539.547 446.219,535.01    441.682,539.547 437.145,535.01 432.61,539.547 428.073,535.01 423.536,539.547 419,535.01 414.463,539.547  "/>
	<polyline display="inline" fill="none" stroke="#42608C" stroke-miterlimit="10" points="450.756,533.547 446.219,529.01    441.682,533.547 437.145,529.01 432.61,533.547 428.073,529.01 423.536,533.547 419,529.01 414.463,533.547  "/>
</g>
<rect x="0" fill="#fee8e8" width="16" height="8"/>
<circle opacity="0.05" cx="3" cy="5" r="1"/>
<circle opacity="0.05" cx="7" cy="5" r="1"/>
<circle opacity="0.05" cx="11" cy="5" r="1"/>
<circle opacity="0.05" cx="15" cy="5" r="1"/>
<circle opacity="0.05" cx="5" cy="1" r="1"/>
<circle opacity="0.05" cx="13" cy="1" r="1"/>
</svg>
